<svg width="96" height="41" viewBox="0 0 96 41" fill="none" xmlns="http://www.w3.org/2000/svg">
<rect width="96" height="40" transform="translate(0 0.714844)" fill="white"/>
<path d="M15.68 19.0628C15.8507 19.4682 15.936 20.0655 15.936 20.8548V26.2148H14.88V24.7908C14.5493 25.3348 14.1013 25.7508 13.536 26.0388C12.9707 26.3162 12.3253 26.4548 11.6 26.4548C10.9707 26.4548 10.432 26.3428 9.984 26.1188C9.536 25.8842 9.2 25.5748 8.976 25.1908C8.752 24.7962 8.64 24.3642 8.64 23.8948C8.64 23.2228 8.832 22.6842 9.216 22.2788C9.61067 21.8628 10.1493 21.5642 10.832 21.3828C11.536 21.2122 12.6933 21.0308 14.304 20.8388C14.4 20.8175 14.5547 20.7962 14.768 20.7748C14.7573 19.9642 14.576 19.3722 14.224 18.9988C13.872 18.6255 13.2853 18.4388 12.464 18.4388C11.856 18.4388 11.3493 18.5775 10.944 18.8548C10.5493 19.1322 10.272 19.5482 10.112 20.1028L8.96 19.7668C9.16267 18.9882 9.56267 18.3908 10.16 17.9748C10.768 17.5482 11.5467 17.3348 12.496 17.3348C13.2853 17.3348 13.952 17.4842 14.496 17.7828C15.0507 18.0815 15.4453 18.5082 15.68 19.0628ZM11.728 25.4308C12.528 25.4308 13.184 25.2228 13.696 24.8068C14.2187 24.3802 14.5333 23.8308 14.64 23.1588C14.7253 22.7855 14.768 22.3322 14.768 21.7988C13.9147 21.8948 13.2267 21.9802 12.704 22.0548C12.192 22.1295 11.728 22.2202 11.312 22.3268C10.32 22.6042 9.824 23.1268 9.824 23.8948C9.824 24.3215 9.97867 24.6842 10.288 24.9828C10.608 25.2815 11.088 25.4308 11.728 25.4308ZM21.2426 26.4388C20.2293 26.4388 19.392 26.2202 18.7306 25.7828C18.08 25.3455 17.68 24.7375 17.5306 23.9588L18.7306 23.7668C18.8586 24.2682 19.152 24.6628 19.6106 24.9508C20.0693 25.2282 20.6346 25.3668 21.3066 25.3668C21.9573 25.3668 22.4693 25.2335 22.8426 24.9668C23.2266 24.6895 23.4186 24.3108 23.4186 23.8308C23.4186 23.5535 23.3546 23.3348 23.2266 23.1748C23.1093 23.0148 22.8746 22.8655 22.5226 22.7268C22.1706 22.5775 21.616 22.4015 20.8586 22.1988C20.0586 21.9855 19.44 21.7722 19.0026 21.5588C18.5653 21.3455 18.256 21.1055 18.0746 20.8388C17.8933 20.5615 17.8026 20.2148 17.8026 19.7988C17.8026 19.0628 18.1013 18.4708 18.6986 18.0228C19.3066 17.5642 20.1013 17.3348 21.0826 17.3348C22.0533 17.3348 22.864 17.5695 23.5146 18.0388C24.176 18.4975 24.544 19.1002 24.6186 19.8468L23.4186 20.0708C23.344 19.5482 23.0826 19.1428 22.6346 18.8548C22.1973 18.5562 21.6426 18.4068 20.9706 18.4068C20.3733 18.4068 19.8933 18.5295 19.5306 18.7748C19.168 19.0202 18.9866 19.3402 18.9866 19.7348C18.9866 19.9802 19.056 20.1828 19.1946 20.3428C19.3333 20.4922 19.5786 20.6415 19.9306 20.7908C20.2933 20.9295 20.8213 21.0842 21.5146 21.2548C22.3253 21.4575 22.9493 21.6708 23.3866 21.8948C23.8346 22.1188 24.1546 22.3855 24.3466 22.6948C24.5386 22.9935 24.6346 23.3668 24.6346 23.8148C24.6346 24.6362 24.3306 25.2815 23.7226 25.7508C23.1253 26.2095 22.2986 26.4388 21.2426 26.4388ZM28.4809 23.0468C28.4809 23.1322 28.4809 23.3028 28.4809 23.5588C28.4809 23.8148 28.4915 24.0228 28.5129 24.1828C28.5449 24.3428 28.5929 24.4815 28.6569 24.5988C28.9129 25.0575 29.4035 25.2868 30.1289 25.2868C30.4275 25.2868 30.7582 25.2548 31.1209 25.1908V26.2148C30.6942 26.3002 30.2995 26.3428 29.9369 26.3428C29.3929 26.3428 28.9129 26.2522 28.4969 26.0708C28.0809 25.8788 27.7769 25.5855 27.5849 25.1908C27.4462 24.9028 27.3609 24.6255 27.3289 24.3588C27.3075 24.0922 27.2969 23.6655 27.2969 23.0788V18.5828H25.4569V17.5748H27.2969V15.1748H28.4809V17.5748H31.1209V18.5828H28.4809V23.0468ZM34.5668 18.1348C34.8014 17.9215 35.0894 17.7615 35.4308 17.6548C35.7721 17.5482 36.1134 17.4948 36.4548 17.4948C36.6681 17.4948 36.8814 17.5215 37.0948 17.5748V18.6788C36.8601 18.6255 36.6414 18.5988 36.4388 18.5988C35.8841 18.5988 35.4094 18.7535 35.0148 19.0628C34.6201 19.3722 34.3534 19.7668 34.2148 20.2468C34.0868 20.7268 34.0228 21.2815 34.0228 21.9108V26.2148H32.8388V17.5748H33.8948V18.9348C34.0654 18.6255 34.2894 18.3588 34.5668 18.1348ZM44.8675 19.0628C45.0382 19.4682 45.1235 20.0655 45.1235 20.8548V26.2148H44.0675V24.7908C43.7368 25.3348 43.2888 25.7508 42.7235 26.0388C42.1582 26.3162 41.5128 26.4548 40.7875 26.4548C40.1582 26.4548 39.6195 26.3428 39.1715 26.1188C38.7235 25.8842 38.3875 25.5748 38.1635 25.1908C37.9395 24.7962 37.8275 24.3642 37.8275 23.8948C37.8275 23.2228 38.0195 22.6842 38.4035 22.2788C38.7982 21.8628 39.3368 21.5642 40.0195 21.3828C40.7235 21.2122 41.8808 21.0308 43.4915 20.8388C43.5875 20.8175 43.7422 20.7962 43.9555 20.7748C43.9448 19.9642 43.7635 19.3722 43.4115 18.9988C43.0595 18.6255 42.4728 18.4388 41.6515 18.4388C41.0435 18.4388 40.5368 18.5775 40.1315 18.8548C39.7368 19.1322 39.4595 19.5482 39.2995 20.1028L38.1475 19.7668C38.3502 18.9882 38.7502 18.3908 39.3475 17.9748C39.9555 17.5482 40.7342 17.3348 41.6835 17.3348C42.4728 17.3348 43.1395 17.4842 43.6835 17.7828C44.2382 18.0815 44.6328 18.5082 44.8675 19.0628ZM40.9155 25.4308C41.7155 25.4308 42.3715 25.2228 42.8835 24.8068C43.4062 24.3802 43.7208 23.8308 43.8275 23.1588C43.9128 22.7855 43.9555 22.3322 43.9555 21.7988C43.1022 21.8948 42.4142 21.9802 41.8915 22.0548C41.3795 22.1295 40.9155 22.2202 40.4995 22.3268C39.5075 22.6042 39.0115 23.1268 39.0115 23.8948C39.0115 24.3215 39.1662 24.6842 39.4755 24.9828C39.7955 25.2815 40.2755 25.4308 40.9155 25.4308ZM47.3581 14.4548H48.5261V26.2148H47.3581V14.4548ZM51.1565 24.8548H52.5165V26.2148H51.1565V24.8548ZM56.7074 18.1348C56.942 17.9215 57.23 17.7615 57.5714 17.6548C57.9127 17.5482 58.254 17.4948 58.5954 17.4948C58.8087 17.4948 59.022 17.5215 59.2354 17.5748V18.6788C59.0007 18.6255 58.782 18.5988 58.5794 18.5988C58.0247 18.5988 57.55 18.7535 57.1554 19.0628C56.7607 19.3722 56.494 19.7668 56.3554 20.2468C56.2274 20.7268 56.1634 21.2815 56.1634 21.9108V26.2148H54.9794V17.5748H56.0354V18.9348C56.206 18.6255 56.43 18.3588 56.7074 18.1348ZM68.0246 17.5748V26.2148H66.9686V25.0148C66.6486 25.4735 66.238 25.8255 65.7366 26.0708C65.246 26.3055 64.686 26.4228 64.0566 26.4228C63.246 26.4228 62.5793 26.2255 62.0566 25.8308C61.5446 25.4362 61.1713 24.9295 60.9366 24.3108C60.7126 23.6922 60.6006 23.0308 60.6006 22.3268V17.5748H61.7846V21.9908C61.7846 23.0042 61.9873 23.8095 62.3926 24.4068C62.798 25.0042 63.4326 25.3028 64.2966 25.3028C65.118 25.3028 65.7473 25.0308 66.1846 24.4868C66.622 23.9322 66.8406 23.1642 66.8406 22.1828V17.5748H68.0246Z" fill="black"/>
<path d="M79.7481 8.71631L87.3019 8.71682L87.4021 8.73074L87.501 8.75834L87.5613 8.78391C87.6405 8.81874 87.7147 8.86942 87.7799 8.93462L87.8206 8.97866L87.8812 9.06014L87.9184 9.12516L87.957 9.21548L87.9762 9.27961L87.9898 9.34355L87.9991 9.43674L87.9997 16.9702C87.9997 17.3844 87.6639 17.7202 87.2497 17.7202C86.87 17.7202 86.5562 17.438 86.5065 17.072L86.4997 16.9702L86.4992 11.2743L79.2796 18.4996C79.0134 18.7659 78.5967 18.7901 78.3031 18.5723L78.2189 18.4997C77.9526 18.2335 77.9284 17.8168 78.1462 17.5232L78.2188 17.4391L85.4382 10.2153L79.7481 10.2163C79.3684 10.2163 79.0546 9.93415 79.005 9.56808L78.9981 9.46631C78.9981 9.08661 79.2803 8.77282 79.6464 8.72316L79.7481 8.71631Z" fill="#212121"/>
</svg>
