<svg width="70" height="71" viewBox="0 0 70 71" fill="none" xmlns="http://www.w3.org/2000/svg">
<path fill-rule="evenodd" clip-rule="evenodd" d="M65.4915 31.9204C65.7991 31.5622 65.92 31.08 65.8179 30.619L61.5946 11.547C61.4155 10.7381 60.6146 10.2276 59.8057 10.4067C58.9969 10.5859 58.4864 11.3867 58.6655 12.1956L62.4564 29.3149L44.9659 28.1604C44.1393 28.1058 43.4249 28.7317 43.3704 29.5583C43.3158 30.3849 43.9417 31.0993 44.7683 31.1538L64.2546 32.4401C64.7257 32.4712 65.184 32.2787 65.4915 31.9204Z" fill="black"/>
<path fill-rule="evenodd" clip-rule="evenodd" d="M65.1233 32.0553C65.76 31.5254 65.8467 30.5796 65.3168 29.9428C58.6155 21.89 48.9931 16.8247 38.5613 15.8585C28.1295 14.8922 17.7405 18.104 9.67413 24.789C9.03628 25.3177 8.94773 26.2633 9.47635 26.9011C10.005 27.539 10.9506 27.6275 11.5884 27.0989C19.043 20.9209 28.644 17.9527 38.2846 18.8457C47.9252 19.7386 56.8177 24.4197 63.0108 31.8618C63.5407 32.4986 64.4865 32.5852 65.1233 32.0553Z" fill="black"/>
<path fill-rule="evenodd" clip-rule="evenodd" d="M2.7936 63.1059C2.2388 62.5511 1.92712 61.7987 1.92712 61.0141L1.92712 58.0974C1.92712 57.269 2.5987 56.5974 3.42712 56.5974C4.25555 56.5974 4.92712 57.269 4.92712 58.0974L4.92712 60.9724L7.80212 60.9724C8.63055 60.9724 9.30212 61.644 9.30212 62.4724C9.30212 63.3008 8.63055 63.9724 7.80212 63.9724L4.88546 63.9724C4.10086 63.9724 3.34839 63.6607 2.7936 63.1059Z" fill="black"/>
<path fill-rule="evenodd" clip-rule="evenodd" d="M3.42712 50.8474C2.5987 50.8474 1.92712 50.1758 1.92712 49.3474L1.92712 46.4307C1.92712 45.6461 2.2388 44.8937 2.7936 44.3389C3.3484 43.7841 4.10086 43.4724 4.88546 43.4724L7.80212 43.4724C8.63055 43.4724 9.30212 44.144 9.30212 44.9724C9.30212 45.8008 8.63055 46.4724 7.80212 46.4724L4.92712 46.4724L4.92712 49.3474C4.92712 50.1758 4.25555 50.8474 3.42712 50.8474Z" fill="black"/>
<path fill-rule="evenodd" clip-rule="evenodd" d="M15.0521 44.9724C15.0521 44.144 15.7237 43.4724 16.5521 43.4724L19.4688 43.4724C20.2534 43.4724 21.0059 43.7841 21.5606 44.3389C22.1154 44.8937 22.4271 45.6461 22.4271 46.4307L22.4271 49.3474C22.4271 50.1758 21.7556 50.8474 20.9271 50.8474C20.0987 50.8474 19.4271 50.1758 19.4271 49.3474L19.4271 46.4724L16.5521 46.4724C15.7237 46.4724 15.0521 45.8008 15.0521 44.9724Z" fill="black"/>
<path fill-rule="evenodd" clip-rule="evenodd" d="M15.0521 62.4724C15.0521 61.644 15.7237 60.9724 16.5521 60.9724L19.4271 60.9724L19.4271 58.0974C19.4271 57.269 20.0987 56.5974 20.9271 56.5974C21.7556 56.5974 22.4271 57.269 22.4271 58.0974L22.4271 61.0141C22.4271 61.7987 22.1154 62.5511 21.5606 63.1059C21.0059 63.6607 20.2534 63.9724 19.4688 63.9724L16.5521 63.9724C15.7237 63.9724 15.0521 63.3008 15.0521 62.4724Z" fill="black"/>
<path fill-rule="evenodd" clip-rule="evenodd" d="M26.1269 63.1059C25.5721 62.5511 25.2604 61.7987 25.2604 61.0141L25.2604 58.0974C25.2604 57.269 25.932 56.5974 26.7604 56.5974C27.5889 56.5974 28.2604 57.269 28.2604 58.0974L28.2604 60.9724L31.1354 60.9724C31.9639 60.9724 32.6354 61.644 32.6354 62.4724C32.6354 63.3008 31.9639 63.9724 31.1354 63.9724L28.2188 63.9724C27.4342 63.9724 26.6817 63.6607 26.1269 63.1059Z" fill="black"/>
<path fill-rule="evenodd" clip-rule="evenodd" d="M26.7604 50.8474C25.932 50.8474 25.2604 50.1758 25.2604 49.3474L25.2604 46.4307C25.2604 45.6462 25.5721 44.8937 26.1269 44.3389C26.6817 43.7841 27.4342 43.4724 28.2188 43.4724L31.1354 43.4724C31.9639 43.4724 32.6354 44.144 32.6354 44.9724C32.6354 45.8008 31.9639 46.4724 31.1354 46.4724L28.2604 46.4724L28.2604 49.3474C28.2604 50.1758 27.5889 50.8474 26.7604 50.8474Z" fill="black"/>
<path fill-rule="evenodd" clip-rule="evenodd" d="M38.3854 44.9724C38.3854 44.144 39.057 43.4724 39.8854 43.4724L42.8021 43.4724C43.5867 43.4724 44.3392 43.7841 44.894 44.3389C45.4488 44.8937 45.7604 45.6462 45.7604 46.4307L45.7604 49.3474C45.7604 50.1758 45.0889 50.8474 44.2604 50.8474C43.432 50.8474 42.7604 50.1758 42.7604 49.3474L42.7604 46.4724L39.8854 46.4724C39.057 46.4724 38.3854 45.8008 38.3854 44.9724Z" fill="black"/>
<path fill-rule="evenodd" clip-rule="evenodd" d="M38.3854 62.4724C38.3854 61.644 39.057 60.9724 39.8854 60.9724L42.7604 60.9724L42.7604 58.0974C42.7604 57.269 43.432 56.5974 44.2604 56.5974C45.0889 56.5974 45.7604 57.269 45.7604 58.0974L45.7604 61.0141C45.7604 61.7987 45.4488 62.5511 44.894 63.1059C44.3392 63.6607 43.5867 63.9724 42.8021 63.9724L39.8854 63.9724C39.057 63.9724 38.3854 63.3008 38.3854 62.4724Z" fill="black"/>
<path fill-rule="evenodd" clip-rule="evenodd" d="M50.0909 63.9724C49.2625 63.9724 48.5909 63.3008 48.5909 62.4724L48.5909 44.9724C48.5909 44.144 49.2625 43.4724 50.0909 43.4724L67.5909 43.4724C68.4193 43.4724 69.0909 44.144 69.0909 44.9724L69.0909 62.4724C69.0909 63.3008 68.4193 63.9724 67.5909 63.9724L50.0909 63.9724ZM51.5909 60.9724L66.0909 60.9724L66.0909 46.4724L51.5909 46.4724L51.5909 60.9724Z" fill="black"/>
</svg>
