<svg width="70" height="71" viewBox="0 0 70 71" fill="none" xmlns="http://www.w3.org/2000/svg">
<g clip-path="url(#clip0)">
<path fill-rule="evenodd" clip-rule="evenodd" d="M10.2084 3.6731C8.28555 3.6731 6.44149 4.43693 5.08185 5.79657C3.72221 7.15621 2.95837 9.00028 2.95837 10.9231V19.6731C2.95837 20.5015 2.2868 21.1731 1.45837 21.1731C0.629947 21.1731 -0.041626 20.5015 -0.041626 19.6731V10.9231C-0.041626 8.20463 1.03828 5.5975 2.96053 3.67525C4.88278 1.753 7.48991 0.673096 10.2084 0.673096H18.9584C19.7868 0.673096 20.4584 1.34467 20.4584 2.1731C20.4584 3.00152 19.7868 3.6731 18.9584 3.6731H10.2084Z" fill="black"/>
<path fill-rule="evenodd" clip-rule="evenodd" d="M49.5417 2.1731C49.5417 1.34467 50.2133 0.673096 51.0417 0.673096H59.7917C62.5102 0.673096 65.1173 1.753 67.0396 3.67525C68.9618 5.5975 70.0417 8.20463 70.0417 10.9231V19.6731C70.0417 20.5015 69.3702 21.1731 68.5417 21.1731C67.7133 21.1731 67.0417 20.5015 67.0417 19.6731V10.9231C67.0417 9.00028 66.2779 7.15621 64.9183 5.79657C63.5586 4.43693 61.7146 3.6731 59.7917 3.6731H51.0417C50.2133 3.6731 49.5417 3.00152 49.5417 2.1731Z" fill="black"/>
<path fill-rule="evenodd" clip-rule="evenodd" d="M1.45837 50.2563C2.2868 50.2563 2.95837 50.9279 2.95837 51.7563V60.5063C2.95837 62.4292 3.72221 64.2732 5.08185 65.6329C6.44149 66.9925 8.28555 67.7563 10.2084 67.7563H18.9584C19.7868 67.7563 20.4584 68.4279 20.4584 69.2563C20.4584 70.0848 19.7868 70.7563 18.9584 70.7563H10.2084C7.48991 70.7563 4.88278 69.6764 2.96053 67.7542C1.03828 65.8319 -0.041626 63.2248 -0.041626 60.5063V51.7563C-0.041626 50.9279 0.629947 50.2563 1.45837 50.2563Z" fill="black"/>
<path fill-rule="evenodd" clip-rule="evenodd" d="M68.5417 50.2563C69.3702 50.2563 70.0417 50.9279 70.0417 51.7563V60.5063C70.0417 63.2248 68.9618 65.8319 67.0396 67.7542C65.1173 69.6764 62.5102 70.7563 59.7917 70.7563H51.0417C50.2133 70.7563 49.5417 70.0848 49.5417 69.2563C49.5417 68.4279 50.2133 67.7563 51.0417 67.7563H59.7917C61.7146 67.7563 63.5586 66.9925 64.9183 65.6329C66.2779 64.2732 67.0417 62.4292 67.0417 60.5063V51.7563C67.0417 50.9279 67.7133 50.2563 68.5417 50.2563Z" fill="black"/>
<path fill-rule="evenodd" clip-rule="evenodd" d="M18 16.2148C16.6193 16.2148 15.5 17.3341 15.5 18.7148C15.5 20.0956 16.6193 21.2148 18 21.2148C19.3807 21.2148 20.5 20.0956 20.5 18.7148C20.5 17.3341 19.3807 16.2148 18 16.2148ZM12.5 18.7148C12.5 15.6773 14.9624 13.2148 18 13.2148C21.0376 13.2148 23.5 15.6773 23.5 18.7148C23.5 21.7524 21.0376 24.2148 18 24.2148C14.9624 24.2148 12.5 21.7524 12.5 18.7148Z" fill="black"/>
<path fill-rule="evenodd" clip-rule="evenodd" d="M18 50.2148C16.6193 50.2148 15.5 51.3341 15.5 52.7148C15.5 54.0956 16.6193 55.2148 18 55.2148C19.3807 55.2148 20.5 54.0956 20.5 52.7148C20.5 51.3341 19.3807 50.2148 18 50.2148ZM12.5 52.7148C12.5 49.6773 14.9624 47.2148 18 47.2148C21.0376 47.2148 23.5 49.6773 23.5 52.7148C23.5 55.7524 21.0376 58.2148 18 58.2148C14.9624 58.2148 12.5 55.7524 12.5 52.7148Z" fill="black"/>
<path fill-rule="evenodd" clip-rule="evenodd" d="M52 33.2148C50.6193 33.2148 49.5 34.3341 49.5 35.7148C49.5 37.0956 50.6193 38.2148 52 38.2148C53.3807 38.2148 54.5 37.0956 54.5 35.7148C54.5 34.3341 53.3807 33.2148 52 33.2148ZM46.5 35.7148C46.5 32.6773 48.9624 30.2148 52 30.2148C55.0376 30.2148 57.5 32.6773 57.5 35.7148C57.5 38.7524 55.0376 41.2148 52 41.2148C48.9624 41.2148 46.5 38.7524 46.5 35.7148Z" fill="black"/>
<path fill-rule="evenodd" clip-rule="evenodd" d="M28.5925 22.5298C27.938 22.2026 27.1421 22.4679 26.8149 23.1224C26.4876 23.7769 26.7529 24.5728 27.4074 24.9001L38.7792 30.586L35.367 31.9631C34.6884 32.237 34.3604 33.0091 34.6342 33.6877C34.9081 34.3663 35.6802 34.6944 36.3588 34.4205L42.4925 31.945C42.7832 31.8287 43.0341 31.6096 43.1851 31.3075C43.3288 31.0201 43.3582 30.7055 43.2907 30.4152C43.2826 30.3808 43.2733 30.3467 43.2625 30.313L41.3002 24.0447C41.0815 23.3463 40.3382 22.9574 39.6398 23.1761C38.9415 23.3947 38.5526 24.1381 38.7712 24.8364L39.804 28.1356L28.5925 22.5298Z" fill="black"/>
<path fill-rule="evenodd" clip-rule="evenodd" d="M41.6049 41.5298C42.2594 41.2026 43.0553 41.4679 43.3826 42.1224C43.7099 42.7769 43.4446 43.5728 42.79 43.9001L31.4182 49.586L34.8304 50.9631C35.509 51.237 35.8371 52.0091 35.5632 52.6877C35.2894 53.3663 34.5172 53.6944 33.8386 53.4205L27.7048 50.945C27.4142 50.8287 27.1634 50.6095 27.0124 50.3075C26.9059 50.0946 26.8621 49.8666 26.8741 49.6448C26.8782 49.5684 26.889 49.4917 26.9068 49.4152C26.9148 49.3807 26.9242 49.3466 26.935 49.3129L28.8973 43.0447C29.1159 42.3463 29.8593 41.9574 30.5576 42.1761C31.256 42.3947 31.6449 43.1381 31.4263 43.8364L30.3934 47.1356L41.6049 41.5298Z" fill="black"/>
</g>
<defs>
<clipPath id="clip0">
<rect width="70" height="70" fill="white" transform="translate(0 0.714844)"/>
</clipPath>
</defs>
</svg>
