<svg width="56" height="57" viewBox="0 0 56 57" fill="none" xmlns="http://www.w3.org/2000/svg">
<g clip-path="url(#clip0)">
<path fill-rule="evenodd" clip-rule="evenodd" d="M22.1667 2.88159C21.8131 2.88159 21.4739 3.02207 21.2239 3.27212C20.9739 3.52217 20.8334 3.8613 20.8334 4.21493V12.5483H35.1667V4.21493C35.1667 3.8613 35.0262 3.52217 34.7762 3.27212C34.5261 3.02207 34.187 2.88159 33.8334 2.88159H22.1667ZM19.8097 1.8579C20.4348 1.23278 21.2827 0.881592 22.1667 0.881592H33.8334C34.7174 0.881592 35.5653 1.23278 36.1904 1.8579C36.8155 2.48302 37.1667 3.33087 37.1667 4.21493V13.5483C37.1667 14.1005 36.719 14.5483 36.1667 14.5483H19.8334C19.2811 14.5483 18.8334 14.1005 18.8334 13.5483V4.21493C18.8334 3.33087 19.1846 2.48302 19.8097 1.8579Z" fill="black"/>
<path fill-rule="evenodd" clip-rule="evenodd" d="M24.5 5.54834C25.0523 5.54834 25.5 5.99606 25.5 6.54834V8.88167C25.5 9.43396 25.0523 9.88167 24.5 9.88167C23.9477 9.88167 23.5 9.43396 23.5 8.88167V6.54834C23.5 5.99606 23.9477 5.54834 24.5 5.54834Z" fill="black"/>
<path fill-rule="evenodd" clip-rule="evenodd" d="M31.5 5.54834C32.0523 5.54834 32.5 5.99606 32.5 6.54834V8.88167C32.5 9.43396 32.0523 9.88167 31.5 9.88167C30.9477 9.88167 30.5 9.43396 30.5 8.88167V6.54834C30.5 5.99606 30.9477 5.54834 31.5 5.54834Z" fill="black"/>
<path fill-rule="evenodd" clip-rule="evenodd" d="M17.5 14.5483C17.1464 14.5483 16.8073 14.6888 16.5572 14.9389C16.3072 15.1889 16.1667 15.5281 16.1667 15.8817V46.2135C16.1737 48.4218 17.054 50.5378 18.6156 52.0994C20.1773 53.661 22.2933 54.5414 24.5018 54.5483C24.5022 54.5483 24.5026 54.5483 24.503 54.5483H31.497C31.4975 54.5483 31.4979 54.5483 31.4983 54.5483C33.7067 54.5414 35.8228 53.661 37.3844 52.0994C38.9461 50.5378 39.8264 48.4217 39.8334 46.2133V15.8817C39.8334 15.528 39.6929 15.1889 39.4428 14.9389C39.1928 14.6888 38.8536 14.5483 38.5 14.5483H17.5ZM15.143 13.5247C15.7681 12.8995 16.616 12.5483 17.5 12.5483H38.5C39.3841 12.5483 40.2319 12.8995 40.857 13.5247C41.4822 14.1498 41.8334 14.9976 41.8334 15.8817V46.215L41.8334 46.218C41.8252 48.9553 40.7342 51.5781 38.7986 53.5136C36.8631 55.4492 34.2403 56.5402 31.503 56.5483L31.5 56.5483H24.5L24.497 56.5483C21.7598 56.5402 19.137 55.4492 17.2014 53.5136C15.2659 51.5781 14.1749 48.9553 14.1667 46.218L14.1667 46.215V15.8817C14.1667 14.9976 14.5179 14.1498 15.143 13.5247Z" fill="black"/>
<path fill-rule="evenodd" clip-rule="evenodd" d="M18.8334 18.2148C18.8334 17.6626 19.2811 17.2148 19.8334 17.2148H36.1667C36.719 17.2148 37.1667 17.6626 37.1667 18.2148C37.1667 18.7671 36.719 19.2148 36.1667 19.2148H19.8334C19.2811 19.2148 18.8334 18.7671 18.8334 18.2148Z" fill="black"/>
</g>
<defs>
<clipPath id="clip0">
<rect width="56" height="56" fill="white" transform="translate(0 0.714844)"/>
</clipPath>
</defs>
</svg>
