<svg width="70" height="71" viewBox="0 0 70 71" fill="none" xmlns="http://www.w3.org/2000/svg">
<g clip-path="url(#clip0)">
<path fill-rule="evenodd" clip-rule="evenodd" d="M10.2084 3.6731C8.28555 3.6731 6.44149 4.43693 5.08185 5.79657C3.72221 7.15621 2.95837 9.00028 2.95837 10.9231V19.6731C2.95837 20.5015 2.2868 21.1731 1.45837 21.1731C0.629947 21.1731 -0.041626 20.5015 -0.041626 19.6731V10.9231C-0.041626 8.20463 1.03828 5.5975 2.96053 3.67525C4.88278 1.753 7.48991 0.673096 10.2084 0.673096H18.9584C19.7868 0.673096 20.4584 1.34467 20.4584 2.1731C20.4584 3.00152 19.7868 3.6731 18.9584 3.6731H10.2084Z" fill="black"/>
<path fill-rule="evenodd" clip-rule="evenodd" d="M49.5417 2.1731C49.5417 1.34467 50.2133 0.673096 51.0417 0.673096H59.7917C62.5102 0.673096 65.1173 1.753 67.0396 3.67525C68.9618 5.5975 70.0417 8.20463 70.0417 10.9231V19.6731C70.0417 20.5015 69.3702 21.1731 68.5417 21.1731C67.7133 21.1731 67.0417 20.5015 67.0417 19.6731V10.9231C67.0417 9.00028 66.2779 7.15621 64.9183 5.79657C63.5586 4.43693 61.7146 3.6731 59.7917 3.6731H51.0417C50.2133 3.6731 49.5417 3.00152 49.5417 2.1731Z" fill="black"/>
<path fill-rule="evenodd" clip-rule="evenodd" d="M1.45837 50.2563C2.2868 50.2563 2.95837 50.9279 2.95837 51.7563V60.5063C2.95837 62.4292 3.72221 64.2732 5.08185 65.6329C6.44149 66.9925 8.28555 67.7563 10.2084 67.7563H18.9584C19.7868 67.7563 20.4584 68.4279 20.4584 69.2563C20.4584 70.0848 19.7868 70.7563 18.9584 70.7563H10.2084C7.48991 70.7563 4.88278 69.6764 2.96053 67.7542C1.03828 65.8319 -0.041626 63.2248 -0.041626 60.5063V51.7563C-0.041626 50.9279 0.629947 50.2563 1.45837 50.2563Z" fill="black"/>
<path fill-rule="evenodd" clip-rule="evenodd" d="M68.5417 50.2563C69.3702 50.2563 70.0417 50.9279 70.0417 51.7563V60.5063C70.0417 63.2248 68.9618 65.8319 67.0396 67.7542C65.1173 69.6764 62.5102 70.7563 59.7917 70.7563H51.0417C50.2133 70.7563 49.5417 70.0848 49.5417 69.2563C49.5417 68.4279 50.2133 67.7563 51.0417 67.7563H59.7917C61.7146 67.7563 63.5586 66.9925 64.9183 65.6329C66.2779 64.2732 67.0417 62.4292 67.0417 60.5063V51.7563C67.0417 50.9279 67.7133 50.2563 68.5417 50.2563Z" fill="black"/>
<path fill-rule="evenodd" clip-rule="evenodd" d="M31.6482 16.1906C30.1078 16.8392 29.3473 17.6598 29.149 18.4532C28.9548 19.2299 28.1847 19.7173 27.3996 19.5602C25.8877 19.2578 25.4932 19.6584 25.3576 19.8374C25.0883 20.193 24.9115 20.9446 24.9974 22.1758C25.0784 23.3357 25.367 24.6065 25.6573 25.7008C25.7539 26.0649 25.8443 26.387 25.9271 26.6819C25.9701 26.8348 26.011 26.9803 26.0496 27.1207C26.1031 27.3151 26.1537 27.5052 26.1916 27.6699C26.2194 27.7908 26.2771 28.0445 26.2771 28.2977C26.2771 29.1103 25.631 29.7719 24.8245 29.797C24.8045 29.8193 24.774 29.8607 24.7339 29.9334C24.5871 30.1997 24.468 30.6616 24.468 31.2144C24.468 31.7671 24.5871 32.2291 24.7339 32.4953C24.774 32.568 24.8045 32.6094 24.8245 32.6318C25.631 32.6568 26.2771 33.3184 26.2771 34.131C26.2771 37.4515 27.2632 39.2839 28.1035 40.2642C28.5346 40.7671 28.9556 41.079 29.2507 41.2593C29.3984 41.3496 29.514 41.4065 29.5824 41.4375C29.6165 41.4529 29.6385 41.4617 29.6466 41.4649C29.6469 41.465 29.6472 41.4651 29.6474 41.4652C30.2484 41.6753 30.6521 42.2428 30.6521 42.881V50.1727C30.6521 50.7966 30.2659 51.3553 29.6823 51.5759C28.2084 52.1328 26.7234 52.6706 25.2459 53.2056C23.3772 53.8824 21.5203 54.5548 19.7129 55.2563C16.5073 56.5003 13.7747 57.7207 11.995 58.9517C11.3137 59.423 10.3793 59.2528 9.90805 58.5714C9.43677 57.8901 9.60703 56.9558 10.2883 56.4845C12.3878 55.0322 15.4186 53.7048 18.6275 52.4595C20.422 51.7631 22.3736 51.0556 24.2991 50.3576C25.4386 49.9445 26.5689 49.5348 27.6521 49.1326V43.7981C27.132 43.4761 26.4741 42.973 25.8257 42.2166C24.6071 40.7949 23.5077 38.5787 23.309 35.2294C22.7715 34.9059 22.3731 34.4269 22.1067 33.9438C21.6505 33.1163 21.468 32.1199 21.468 31.2144C21.468 30.3088 21.6505 29.3124 22.1067 28.4849C22.3217 28.095 22.6227 27.7077 23.0135 27.4028C22.9351 27.1231 22.8459 26.8028 22.7576 26.4699C22.4554 25.3306 22.106 23.837 22.0047 22.3847C21.9083 21.0036 22.0049 19.2953 22.9661 18.0261C23.8405 16.8717 25.16 16.3912 26.7429 16.4618C27.5439 15.0416 28.9734 14.0617 30.4841 13.4257C32.4445 12.6002 34.8402 12.2144 37.1729 12.2144C39.5057 12.2144 41.9013 12.6002 43.8618 13.4257C45.7849 14.2354 47.5765 15.6022 48.1073 17.7256L48.1075 17.7263C48.7056 20.1239 48.2597 22.7992 47.7563 24.8064C47.4984 25.8349 47.2086 26.7487 46.9924 27.4254L46.9909 27.4301C47.365 27.731 47.6545 28.1072 47.8629 28.4856C48.3184 29.3129 48.5006 30.3091 48.5006 31.2144C48.5006 32.1197 48.3184 33.1158 47.8629 33.9431C47.597 34.4259 47.199 34.9051 46.6619 35.2289C46.4632 38.5785 45.3638 40.7948 44.1451 42.2166C43.4968 42.973 42.8388 43.4761 42.3188 43.7981V49.1305C43.5218 49.5755 44.7351 50.0147 45.9312 50.4478C47.9517 51.1792 49.9234 51.893 51.7149 52.5872C54.8661 53.8082 57.722 55.0634 59.7158 56.4523C60.3955 56.9259 60.5627 57.8608 60.0891 58.5405C59.6156 59.2203 58.6807 59.3874 58.0009 58.9139C56.3313 57.7507 53.7783 56.6041 50.631 55.3845C48.844 54.6922 46.9495 54.0067 44.9743 53.2921C43.4572 52.7431 41.8924 52.177 40.2923 51.5773C39.7067 51.3578 39.3188 50.7981 39.3188 50.1727V42.881C39.3188 42.2428 39.7225 41.6753 40.3234 41.4652C40.3237 41.4651 40.3239 41.465 40.3242 41.4649C40.3323 41.4617 40.3544 41.4529 40.3885 41.4375C40.4569 41.4065 40.5725 41.3496 40.7202 41.2593C41.0152 41.079 41.4363 40.7671 41.8674 40.2642C42.7077 39.2839 43.6938 37.4515 43.6938 34.131C43.6938 33.3189 44.3392 32.6575 45.1451 32.6318C45.165 32.6094 45.1953 32.5681 45.235 32.496C45.3817 32.2296 45.5006 31.7674 45.5006 31.2144C45.5006 30.6613 45.3817 30.1991 45.235 29.9327C45.1953 29.8606 45.165 29.8193 45.1451 29.7969C44.3392 29.7712 43.6938 29.1098 43.6938 28.2977C43.6938 28.0815 43.7343 27.886 43.7569 27.7841C43.7848 27.6585 43.8208 27.5263 43.8574 27.4005C43.9235 27.1728 44.0128 26.8935 44.1073 26.5982L44.1347 26.5123C44.3496 25.8397 44.6136 25.0048 44.8464 24.0766C45.3245 22.1703 45.6078 20.1003 45.1967 18.4524C44.9981 17.6593 44.2376 16.839 42.6976 16.1906C41.1945 15.5577 39.2152 15.2144 37.1729 15.2144C35.1307 15.2144 33.1513 15.5577 31.6482 16.1906ZM45.1173 29.7737C45.1174 29.7722 45.1236 29.7749 45.1355 29.7868C45.1231 29.7812 45.1172 29.7753 45.1173 29.7737ZM45.1173 32.655C45.1171 32.6534 45.1231 32.6475 45.1355 32.642C45.1236 32.6538 45.1174 32.6565 45.1173 32.655ZM46.6814 28.4555C46.6812 28.456 46.6818 28.4523 46.6835 28.444C46.6823 28.4511 46.6815 28.4551 46.6814 28.4555ZM24.852 32.6545C24.8519 32.6561 24.8457 32.6533 24.8337 32.6415C24.8462 32.647 24.8522 32.6529 24.852 32.6545ZM24.852 29.7742C24.8522 29.7758 24.8462 29.7817 24.8337 29.7872C24.8457 29.7754 24.8519 29.7726 24.852 29.7742Z" fill="black"/>
</g>
<defs>
<clipPath id="clip0">
<rect width="70" height="70" fill="white" transform="translate(0 0.714844)"/>
</clipPath>
</defs>
</svg>
