<svg width="56" height="57" viewBox="0 0 56 57" fill="none" xmlns="http://www.w3.org/2000/svg">
<g clip-path="url(#clip0)">
<path fill-rule="evenodd" clip-rule="evenodd" d="M42.4059 24.5659C42.7643 24.1457 43.3955 24.0956 43.8156 24.4541C44.2493 24.824 44.692 25.1964 45.1375 25.5711C46.9493 27.0952 48.8064 28.6575 50.2815 30.2439C52.1055 32.2054 53.5536 34.4145 53.5 36.8928V47.2923L55.7216 51.5889C55.9753 52.0795 55.7832 52.6828 55.2926 52.9365C54.802 53.1901 54.1987 52.9981 53.945 52.5075L51.6117 47.9948C51.5383 47.8529 51.5 47.6954 51.5 47.5355V36.8815L51.5003 36.8579C51.5396 35.1926 50.5617 33.4822 48.8169 31.6058C47.4338 30.1184 45.7003 28.6595 43.8982 27.1428C43.4409 26.758 42.9792 26.3694 42.5177 25.9757C42.0975 25.6172 42.0474 24.986 42.4059 24.5659Z" fill="black"/>
<path fill-rule="evenodd" clip-rule="evenodd" d="M37.2237 33.848C37.7024 33.6581 38.214 33.5647 38.7289 33.5733C39.2438 33.5819 39.752 33.6922 40.2241 33.898C40.6947 34.1031 41.1202 34.399 41.4763 34.7688L47.4257 40.8487C47.812 41.2435 47.8051 41.8766 47.4103 42.2629C47.0156 42.6491 46.3825 42.6422 45.9962 42.2475L40.0375 36.158C39.8634 35.9768 39.6553 35.8318 39.425 35.7314C39.1946 35.631 38.9468 35.5772 38.6956 35.573C38.4444 35.5688 38.1948 35.6144 37.9613 35.707C37.7278 35.7997 37.5149 35.9376 37.3348 36.1129C37.1548 36.2881 37.0113 36.4973 36.9124 36.7282C36.8136 36.9592 36.7614 37.2074 36.7589 37.4587C36.7564 37.7099 36.8036 37.9591 36.8978 38.192C36.992 38.4249 37.1313 38.6369 37.3078 38.8158L37.3097 38.8178L43.8804 45.5144C44.0639 45.7014 44.1666 45.9529 44.1666 46.2148V49.6283C44.5068 51.5465 45.2435 53.3729 46.3301 54.9905C46.638 55.449 46.516 56.0703 46.0575 56.3782C45.5991 56.6862 44.9778 56.5642 44.6698 56.1057C43.4103 54.2306 42.5621 52.11 42.181 49.8835C42.1714 49.8278 42.1666 49.7713 42.1666 49.7148V46.6234L35.8841 40.2205C35.8838 40.2201 35.8834 40.2197 35.883 40.2194C35.5218 39.853 35.2366 39.4189 35.0437 38.9419C34.8506 38.4645 34.7538 37.9536 34.759 37.4386C34.7641 36.9237 34.8711 36.4148 35.0737 35.9413C35.2764 35.4679 35.5706 35.0392 35.9396 34.6799C36.3086 34.3206 36.745 34.0379 37.2237 33.848Z" fill="black"/>
<path fill-rule="evenodd" clip-rule="evenodd" d="M0.707353 4.49327C1.19794 4.23961 1.80127 4.43167 2.05493 4.92226L4.38827 9.43492C4.46167 9.5769 4.49998 9.7344 4.49998 9.89422V20.5482L4.49971 20.5718C4.46037 22.2371 5.43831 23.9475 7.18311 25.824C8.56615 27.3114 10.2996 28.7703 12.1018 30.2869C12.5591 30.6718 13.0208 31.0604 13.4823 31.4541C13.9025 31.8125 13.9525 32.4437 13.5941 32.8639C13.2357 33.2841 12.6045 33.3341 12.1843 32.9757C11.7507 32.6058 11.308 32.2334 10.8625 31.8586C9.05068 30.3345 7.19353 28.7723 5.71845 27.1859C3.89452 25.2243 2.4464 23.0153 2.49998 20.5369V10.1375L0.278369 5.84085C0.0247056 5.35027 0.216768 4.74694 0.707353 4.49327Z" fill="black"/>
<path fill-rule="evenodd" clip-rule="evenodd" d="M9.94241 1.05133C10.4009 0.743386 11.0222 0.865401 11.3301 1.32386C12.5896 3.199 13.4379 5.31957 13.819 7.54606C13.8285 7.60179 13.8333 7.65824 13.8333 7.71478V10.8061L20.1158 17.2091C20.1162 17.2094 20.1165 17.2098 20.1168 17.2101C20.4781 17.5765 20.7633 18.0106 20.9563 18.4876C21.1494 18.965 21.2461 19.476 21.241 19.9909C21.2358 20.5059 21.1288 21.0148 20.9262 21.4882C20.7236 21.9617 20.4293 22.3904 20.0603 22.7497C19.6913 23.1089 19.2549 23.3917 18.7762 23.5816C18.2975 23.7715 17.786 23.8649 17.271 23.8563C16.7561 23.8477 16.248 23.7373 15.7759 23.5315C15.3053 23.3264 14.8798 23.0306 14.5237 22.6608L8.57426 16.5808C8.188 16.1861 8.19487 15.553 8.58961 15.1667C8.98435 14.7804 9.61748 14.7873 10.0037 15.1821L15.9625 21.2716C16.1365 21.4528 16.3447 21.5977 16.575 21.6981C16.8053 21.7985 17.0532 21.8524 17.3044 21.8565C17.5556 21.8607 17.8051 21.8152 18.0387 21.7225C18.2722 21.6299 18.4851 21.492 18.6651 21.3167C18.8451 21.1414 18.9887 20.9323 19.0875 20.7013C19.1864 20.4704 19.2386 20.2221 19.2411 19.9709C19.2436 19.7197 19.1964 19.4704 19.1022 19.2375C19.008 19.0046 18.8686 18.7926 18.6922 18.6138L18.6902 18.6118L12.1195 11.9151C11.9361 11.7282 11.8333 11.4767 11.8333 11.2148V7.80123C11.4932 5.88307 10.7565 4.05668 9.66988 2.43904C9.36194 1.98058 9.48395 1.35928 9.94241 1.05133Z" fill="black"/>
<path fill-rule="evenodd" clip-rule="evenodd" d="M12.8333 18.5027C13.3856 18.5027 13.8333 18.9504 13.8333 19.5027V54.3813C13.8333 54.4255 13.8509 54.4679 13.8821 54.4992C13.9134 54.5304 13.9558 54.548 14 54.548H39.6666C40.2189 54.548 40.6666 54.9957 40.6666 55.548C40.6666 56.1003 40.2189 56.548 39.6666 56.548H14C13.4253 56.548 12.8742 56.3197 12.4679 55.9134C12.0616 55.5071 11.8333 54.956 11.8333 54.3813V19.5027C11.8333 18.9504 12.281 18.5027 12.8333 18.5027Z" fill="black"/>
<path fill-rule="evenodd" clip-rule="evenodd" d="M16.5 6.5481C16.5 5.99581 16.9477 5.5481 17.5 5.5481H25.6667C26.2189 5.5481 26.6667 5.99581 26.6667 6.5481C26.6667 7.10038 26.2189 7.5481 25.6667 7.5481H17.5C16.9477 7.5481 16.5 7.10038 16.5 6.5481Z" fill="black"/>
<path fill-rule="evenodd" clip-rule="evenodd" d="M43.1666 23.0481C43.7189 23.0481 44.1666 23.4958 44.1666 24.0481V37.9268C44.1666 38.4791 43.7189 38.9268 43.1666 38.9268C42.6143 38.9268 42.1666 38.4791 42.1666 37.9268V24.0481C42.1666 23.4958 42.6143 23.0481 43.1666 23.0481Z" fill="black"/>
<path fill-rule="evenodd" clip-rule="evenodd" d="M16.5 36.8813C16.5 36.3291 16.9477 35.8813 17.5 35.8813H30.3333C30.8856 35.8813 31.3333 36.3291 31.3333 36.8813C31.3333 37.4336 30.8856 37.8813 30.3333 37.8813H17.5C16.9477 37.8813 16.5 37.4336 16.5 36.8813Z" fill="black"/>
<path fill-rule="evenodd" clip-rule="evenodd" d="M16.5 29.8813C16.5 29.3291 16.9477 28.8813 17.5 28.8813H38.5C39.0523 28.8813 39.5 29.3291 39.5 29.8813C39.5 30.4336 39.0523 30.8813 38.5 30.8813H17.5C16.9477 30.8813 16.5 30.4336 16.5 29.8813Z" fill="black"/>
<path fill-rule="evenodd" clip-rule="evenodd" d="M16.5 43.8813C16.5 43.3291 16.9477 42.8813 17.5 42.8813H28C28.5523 42.8813 29 43.3291 29 43.8813C29 44.4336 28.5523 44.8813 28 44.8813H17.5C16.9477 44.8813 16.5 44.4336 16.5 43.8813Z" fill="black"/>
<path fill-rule="evenodd" clip-rule="evenodd" d="M38.5 2.88135C36.8518 2.88135 35.2406 3.37009 33.8702 4.28577C32.4998 5.20145 31.4317 6.50294 30.801 8.02565C30.1702 9.54837 30.0052 11.2239 30.3268 12.8404C30.6483 14.4569 31.442 15.9418 32.6074 17.1072C33.7728 18.2727 35.2577 19.0664 36.8742 19.3879C38.4907 19.7094 40.1663 19.5444 41.689 18.9137C43.2117 18.2829 44.5132 17.2148 45.4289 15.8444C46.3446 14.474 46.8333 12.8629 46.8333 11.2147C46.8333 10.6624 47.281 10.2147 47.8333 10.2147C48.3856 10.2147 48.8333 10.6624 48.8333 11.2147C48.8333 13.2584 48.2273 15.2563 47.0918 16.9556C45.9564 18.6549 44.3425 19.9793 42.4544 20.7614C40.5662 21.5435 38.4885 21.7482 36.484 21.3495C34.4796 20.9508 32.6383 19.9666 31.1932 18.5215C29.7481 17.0763 28.7639 15.2351 28.3652 13.2306C27.9665 11.2261 28.1711 9.14846 28.9532 7.26029C29.7353 5.37212 31.0598 3.75827 32.7591 2.62283C34.4584 1.48739 36.4562 0.881348 38.5 0.881348C39.0523 0.881348 39.5 1.32906 39.5 1.88135C39.5 2.43363 39.0523 2.88135 38.5 2.88135Z" fill="black"/>
<path fill-rule="evenodd" clip-rule="evenodd" d="M48.5404 3.50774C48.931 3.89826 48.931 4.53143 48.5404 4.92195L40.034 13.4284C40.0338 13.4286 40.0342 13.4282 40.034 13.4284C40.0339 13.4285 40.0332 13.4292 40.0331 13.4293C39.832 13.6306 39.5932 13.7904 39.3304 13.8995C39.0672 14.0087 38.785 14.0649 38.5 14.0649C38.215 14.0649 37.9328 14.0087 37.6696 13.8995C37.4066 13.7904 37.1678 13.6305 36.9666 13.429C36.9664 13.4288 36.9668 13.4292 36.9666 13.429L34.2929 10.7553C33.9024 10.3648 33.9024 9.73159 34.2929 9.34107C34.6834 8.95055 35.3166 8.95055 35.7071 9.34107L38.382 12.016C38.3975 12.0315 38.4159 12.0438 38.4361 12.0522C38.4564 12.0606 38.4781 12.0649 38.5 12.0649C38.5219 12.0649 38.5436 12.0606 38.5639 12.0522C38.5841 12.0438 38.6025 12.0315 38.618 12.016L47.1262 3.50774C47.5167 3.11721 48.1499 3.11721 48.5404 3.50774Z" fill="black"/>
</g>
<defs>
<clipPath id="clip0">
<rect width="56" height="56" fill="white" transform="translate(0 0.714844)"/>
</clipPath>
</defs>
</svg>
