<svg width="56" height="57" viewBox="0 0 56 57" fill="none" xmlns="http://www.w3.org/2000/svg">
<g clip-path="url(#clip0)">
<path fill-rule="evenodd" clip-rule="evenodd" d="M24.542 45.2159C25.0938 45.2391 25.5223 45.7052 25.499 46.257C25.3499 49.8007 24.1834 53.2264 22.1391 56.1247C21.8208 56.576 21.1968 56.6838 20.7455 56.3655C20.2942 56.0472 20.1864 55.4232 20.5047 54.9719C22.3277 52.3875 23.3678 49.3328 23.5008 46.1729C23.524 45.6211 23.9902 45.1926 24.542 45.2159Z" fill="black"/>
<path fill-rule="evenodd" clip-rule="evenodd" d="M31.4579 45.2159C32.0097 45.1926 32.4758 45.6211 32.4991 46.1729C32.6321 49.3328 33.6722 52.3875 35.4951 54.9719C35.8135 55.4232 35.7057 56.0472 35.2543 56.3655C34.803 56.6838 34.1791 56.576 33.8608 56.1247C31.8165 53.2264 30.65 49.8007 30.5008 46.257C30.4776 45.7052 30.9061 45.2391 31.4579 45.2159Z" fill="black"/>
<path fill-rule="evenodd" clip-rule="evenodd" d="M16.5 55.5482C16.5 54.9959 16.9477 54.5482 17.5 54.5482H38.5C39.0523 54.5482 39.5 54.9959 39.5 55.5482C39.5 56.1005 39.0523 56.5482 38.5 56.5482H17.5C16.9477 56.5482 16.5 56.1005 16.5 55.5482Z" fill="black"/>
<path fill-rule="evenodd" clip-rule="evenodd" d="M0.166626 39.215C0.166626 38.6627 0.614341 38.215 1.16663 38.215H54.8333C55.3856 38.215 55.8333 38.6627 55.8333 39.215C55.8333 39.7673 55.3856 40.215 54.8333 40.215H1.16663C0.614341 40.215 0.166626 39.7673 0.166626 39.215Z" fill="black"/>
<path fill-rule="evenodd" clip-rule="evenodd" d="M0.166626 7.88159C0.166626 4.01559 3.30063 0.881592 7.16663 0.881592H48.8333C52.6993 0.881592 55.8333 4.0156 55.8333 7.88159V40.2149C55.8333 44.0809 52.6993 47.2149 48.8333 47.2149H7.16663C3.30064 47.2149 0.166626 44.0809 0.166626 40.2149V7.88159ZM7.16663 2.88159C4.4052 2.88159 2.16663 5.12016 2.16663 7.88159V40.2149C2.16663 42.9763 4.40521 45.2149 7.16663 45.2149H48.8333C51.5947 45.2149 53.8333 42.9763 53.8333 40.2149V7.88159C53.8333 5.12017 51.5947 2.88159 48.8333 2.88159H7.16663Z" fill="black"/>
<path fill-rule="evenodd" clip-rule="evenodd" d="M40.3737 12.8412C40.7642 13.2318 40.7642 13.8649 40.3737 14.2554L28.707 25.9221C28.3165 26.3126 27.6833 26.3126 27.2928 25.9221L22.6261 21.2554C22.2356 20.8649 22.2356 20.2318 22.6261 19.8412C23.0167 19.4507 23.6498 19.4507 24.0404 19.8412L27.9999 23.8008L38.9595 12.8412C39.35 12.4507 39.9832 12.4507 40.3737 12.8412Z" fill="black"/>
<path fill-rule="evenodd" clip-rule="evenodd" d="M32.2222 13.2027C30.3718 12.2847 28.2727 11.9948 26.2428 12.3768C24.2128 12.7589 22.3627 13.7922 20.9727 15.3201C19.5828 16.848 18.7286 18.7873 18.5398 20.8442C18.3509 22.9011 18.8375 24.9636 19.926 26.7191C21.0145 28.4746 22.6455 29.8275 24.5719 30.5728C26.4983 31.3182 28.6151 31.4154 30.6017 30.8497C32.5883 30.284 34.3364 29.0862 35.5812 27.4378C36.826 25.7895 37.4996 23.7803 37.5 21.7147C37.5001 21.1625 37.9479 20.7148 38.5002 20.7149C39.0524 20.715 39.5001 21.1628 39.5 21.7151C39.4995 24.2156 38.6841 26.6477 37.1772 28.6431C35.6704 30.6385 33.5543 32.0884 31.1495 32.7732C28.7446 33.458 26.1821 33.3404 23.8502 32.4381C21.5182 31.5358 19.5439 29.8981 18.2262 27.773C16.9086 25.6479 16.3195 23.1513 16.5481 20.6613C16.7768 18.1714 17.8107 15.8238 19.4933 13.9742C21.1759 12.1246 23.4155 10.8738 25.8728 10.4113C28.3301 9.94884 30.8712 10.2998 33.1111 11.4111C33.6058 11.6566 33.8079 12.2566 33.5624 12.7514C33.317 13.2461 32.7169 13.4482 32.2222 13.2027Z" fill="black"/>
</g>
<defs>
<clipPath id="clip0">
<rect width="56" height="56" fill="white" transform="translate(0 0.714844)"/>
</clipPath>
</defs>
</svg>
