<svg width="56" height="57" viewBox="0 0 56 57" fill="none" xmlns="http://www.w3.org/2000/svg">
<g clip-path="url(#clip0)">
<path fill-rule="evenodd" clip-rule="evenodd" d="M16.7718 29.4928C17.7424 29.0907 18.7827 28.8838 19.8333 28.8838C20.8838 28.8838 21.9241 29.0907 22.8947 29.4928C23.8653 29.8948 24.7472 30.4841 25.4901 31.2269C26.233 31.9698 26.8222 32.8517 27.2243 33.8223C27.6263 34.7929 27.8332 35.8332 27.8332 36.8838C27.8332 37.9344 27.6263 38.9747 27.2243 39.9453C26.8222 40.9159 26.233 41.7978 25.4901 42.5406C24.7472 43.2835 23.8653 43.8728 22.8947 44.2748C21.9241 44.6769 20.8838 44.8838 19.8333 44.8838C18.7827 44.8838 17.7424 44.6769 16.7718 44.2748C15.8012 43.8728 14.9193 43.2835 14.1764 42.5406C13.4335 41.7978 12.8443 40.9159 12.4422 39.9453C12.0402 38.9747 11.8333 37.9344 11.8333 36.8838C11.8333 35.8332 12.0402 34.7929 12.4422 33.8223C12.8443 32.8517 13.4335 31.9698 14.1764 31.2269C14.9193 30.4841 15.8012 29.8948 16.7718 29.4928ZM19.8333 30.8838C19.0453 30.8838 18.2651 31.039 17.5372 31.3405C16.8092 31.642 16.1478 32.084 15.5906 32.6411C15.0335 33.1983 14.5915 33.8597 14.29 34.5877C13.9884 35.3156 13.8333 36.0959 13.8333 36.8838C13.8333 37.6717 13.9884 38.4519 14.29 39.1799C14.5915 39.9078 15.0335 40.5693 15.5906 41.1264C16.1478 41.6836 16.8092 42.1255 17.5372 42.4271C18.2651 42.7286 19.0453 42.8838 19.8333 42.8838C20.6212 42.8838 21.4014 42.7286 22.1293 42.4271C22.8573 42.1255 23.5187 41.6836 24.0759 41.1264C24.633 40.5693 25.075 39.9078 25.3765 39.1799C25.6781 38.4519 25.8332 37.6717 25.8332 36.8838C25.8332 36.0959 25.6781 35.3156 25.3765 34.5877C25.075 33.8597 24.633 33.1983 24.0759 32.6411C23.5187 32.084 22.8573 31.642 22.1293 31.3405C21.4014 31.039 20.6212 30.8838 19.8333 30.8838Z" fill="black"/>
<path fill-rule="evenodd" clip-rule="evenodd" d="M14.1667 20.5482C14.1667 18.725 15.6768 17.2148 17.5 17.2148H22.1667C23.0507 17.2148 23.8986 17.566 24.5237 18.1912C25.1488 18.8163 25.5 19.6641 25.5 20.5482V21.7606C27.17 22.3853 28.726 23.2804 30.1055 24.4101L31.1444 23.8099L31.1447 23.8098C31.9103 23.3678 32.8201 23.248 33.674 23.4768C34.5279 23.7056 35.256 24.2642 35.698 25.0298L34.832 25.5298L35.698 25.0298L38.0313 29.0712L37.1653 29.5712L38.0314 29.0712C38.4734 29.8368 38.5931 30.7466 38.3644 31.6005C38.1356 32.4544 37.5769 33.1825 36.8114 33.6245L35.7676 34.2279C36.062 35.9868 36.062 37.7824 35.7677 39.5413L36.8109 40.1429L36.8114 40.1432C37.5769 40.5852 38.1356 41.3133 38.3644 42.1672C38.5931 43.0211 38.4734 43.9309 38.0314 44.6965L37.1653 44.1965L38.0313 44.6965L35.698 48.7379L34.832 48.2378L35.698 48.7379C35.256 49.5034 34.5279 50.0621 33.674 50.2909C32.8201 50.5197 31.9103 50.3999 31.1447 49.9579L31.1443 49.9577L30.1114 49.3608C28.732 50.4946 27.1736 51.391 25.5 52.0133V53.2148C25.5 54.0989 25.1488 54.9467 24.5237 55.5719C23.8986 56.197 23.0507 56.5482 22.1667 56.5482H17.5C16.6159 56.5482 15.7681 56.197 15.143 55.5719C14.5178 54.9467 14.1667 54.0989 14.1667 53.2148V52.0096C12.4948 51.3848 10.9376 50.4881 9.55802 49.3557L8.51987 49.9554L8.51965 49.9555C7.75405 50.3975 6.84423 50.5173 5.99032 50.2885C5.13641 50.0597 4.40836 49.5011 3.96632 48.7355L3.9663 48.7355L1.63297 44.6942L1.63296 44.6942C1.19095 43.9286 1.07117 43.0187 1.29996 42.1648C1.52876 41.3109 2.08738 40.5829 2.85296 40.1408L2.85306 40.1408L3.89925 39.5369C3.60822 37.7945 3.60575 36.0162 3.89183 34.2733L2.6537 33.6524C2.63618 33.6436 2.61892 33.6343 2.60194 33.6245C0.863031 32.6205 0.823941 30.4701 1.63296 29.0689L1.63297 29.0688L3.9663 25.0275L3.96675 25.0267C4.87949 23.4491 6.94207 22.898 8.52008 23.8101L9.55409 24.4068C10.9329 23.2709 12.492 22.3734 14.1667 21.7516V20.5482ZM17.5 19.2148C16.7814 19.2148 16.1667 19.8296 16.1667 20.5482V22.4638C16.1667 22.8987 15.8856 23.2838 15.4714 23.4163C13.5703 24.0246 11.8208 25.0315 10.3398 26.3698C10.0179 26.6606 9.54523 26.7108 9.1695 26.494L7.51983 25.542L7.51923 25.5416C6.89735 25.1822 6.05791 25.4064 5.69806 26.028C5.698 26.0281 5.69795 26.0282 5.6979 26.0283L3.36502 30.0688C3.36502 30.0688 3.36501 30.0688 3.36501 30.0689C2.90999 30.857 3.13299 31.6034 3.5818 31.8804L5.46259 32.8236C5.86984 33.0278 6.08757 33.4815 5.99214 33.927C5.57476 35.8753 5.57476 37.89 5.99214 39.8384C6.08301 40.2626 5.88999 40.697 5.51426 40.9139L3.85302 41.8728C3.54679 42.0497 3.32334 42.3409 3.23182 42.6825C3.14031 43.024 3.18821 43.3879 3.36501 43.6942C3.36501 43.6942 3.36502 43.6942 3.36502 43.6942L5.69833 47.7355C5.87515 48.0417 6.16637 48.2652 6.50793 48.3567C6.8495 48.4482 7.21343 48.4003 7.51967 48.2235L9.17144 47.2693C9.54647 47.0526 10.0183 47.102 10.3404 47.3916C11.8249 48.7267 13.5741 49.734 15.474 50.3476C15.8869 50.4809 16.1667 50.8653 16.1667 51.2992V53.2148C16.1667 53.5685 16.3071 53.9076 16.5572 54.1576C16.8072 54.4077 17.1464 54.5482 17.5 54.5482H22.1667C22.5203 54.5482 22.8594 54.4077 23.1095 54.1576C23.3595 53.9076 23.5 53.5685 23.5 53.2148V51.3015C23.5 50.8669 23.7807 50.482 24.1946 50.3493C26.0954 49.7397 27.845 48.7334 29.3278 47.397C29.6499 47.1068 30.1223 47.0571 30.4977 47.274L32.1447 48.2258C32.4509 48.4026 32.8148 48.4505 33.1564 48.359C33.4979 48.2675 33.7892 48.044 33.966 47.7378L36.2993 43.6965C36.4761 43.3903 36.524 43.0263 36.4325 42.6848C36.341 42.3432 36.1175 42.052 35.8113 41.8752L34.1528 40.9188C33.7767 40.7019 33.5835 40.2671 33.6746 39.8427C34.093 37.8931 34.093 35.8769 33.6746 33.9274C33.5836 33.5033 33.7763 33.0688 34.1519 32.8517L35.8109 31.8927L35.8113 31.8925C36.1175 31.7157 36.341 31.4245 36.4325 31.0829C36.524 30.7413 36.4761 30.3774 36.2993 30.0712L33.966 26.0299C33.7892 25.7236 33.4979 25.5002 33.1564 25.4087C32.8149 25.3172 32.4511 25.365 32.1449 25.5417C32.1448 25.5418 32.1447 25.5418 32.1447 25.5419L30.4929 26.4961C30.1183 26.7125 29.647 26.6635 29.3249 26.3746C27.8395 25.0422 26.0909 24.0364 24.1923 23.4223C23.7796 23.2888 23.5 22.9046 23.5 22.4708V20.5482C23.5 20.1946 23.3595 19.8554 23.1095 19.6054C22.8594 19.3553 22.5203 19.2148 22.1667 19.2148H17.5Z" fill="black"/>
<path fill-rule="evenodd" clip-rule="evenodd" d="M41.1513 9.20181C41.9952 8.3579 43.1398 7.88379 44.3333 7.88379C45.5267 7.88379 46.6713 8.3579 47.5152 9.20181C48.3591 10.0457 48.8333 11.1903 48.8333 12.3838C48.8333 13.5773 48.3591 14.7219 47.5152 15.5658C46.6713 16.4097 45.5267 16.8838 44.3333 16.8838C43.1398 16.8838 41.9952 16.4097 41.1513 15.5658C40.3074 14.7219 39.8333 13.5773 39.8333 12.3838C39.8333 11.1903 40.3074 10.0457 41.1513 9.20181ZM44.3333 9.88379C43.6702 9.88379 43.0343 10.1472 42.5655 10.616C42.0966 11.0849 41.8333 11.7207 41.8333 12.3838C41.8333 13.0468 42.0966 13.6827 42.5655 14.1516C43.0343 14.6204 43.6702 14.8838 44.3333 14.8838C44.9963 14.8838 45.6322 14.6204 46.101 14.1516C46.5699 13.6827 46.8333 13.0468 46.8333 12.3838C46.8333 11.7207 46.5699 11.0849 46.101 10.616C45.6322 10.1472 44.9963 9.88379 44.3333 9.88379Z" fill="black"/>
<path fill-rule="evenodd" clip-rule="evenodd" d="M41.6346 1.51607C42.0409 1.10974 42.592 0.88147 43.1666 0.88147H45.5C46.0746 0.88147 46.6257 1.10974 47.032 1.51607C47.4384 1.9224 47.6666 2.4735 47.6666 3.04814V3.86934C48.5195 4.20696 49.3163 4.67191 50.0298 5.24829L50.7455 4.83364C50.9921 4.6907 51.2644 4.59783 51.547 4.56033C51.8295 4.52283 52.1167 4.54144 52.392 4.61511C52.6674 4.68877 52.9255 4.81604 53.1515 4.98962C53.3776 5.1632 53.5672 5.37967 53.7095 5.62664L54.8757 7.64881C55.163 8.14645 55.2408 8.73783 55.0921 9.29288C54.9434 9.84791 54.5803 10.3211 54.0827 10.6085L53.3644 11.0227C53.5069 11.9266 53.512 12.847 53.3795 13.7525L54.0827 14.1615L54.0845 14.1625C54.5812 14.4499 54.9436 14.9227 55.0921 15.4771C55.2408 16.0321 55.163 16.6235 54.8757 17.1211L53.7095 19.1433C53.5672 19.3903 53.3776 19.6067 53.1515 19.7803C52.9255 19.9539 52.6674 20.0812 52.392 20.1548C52.1167 20.2285 51.8295 20.2471 51.547 20.2096C51.2645 20.1721 50.9922 20.0793 50.7456 19.9364L50.0366 19.5264C49.3201 20.1002 48.5211 20.5627 47.6666 20.898V21.7148C47.6666 22.2894 47.4384 22.8405 47.032 23.2469C46.6257 23.6532 46.0746 23.8815 45.5 23.8815H43.1666C42.592 23.8815 42.0409 23.6532 41.6346 23.2469C41.2282 22.8405 41 22.2894 41 21.7148V20.9042C40.1423 20.5664 39.3409 20.1001 38.6235 19.5214L37.9118 19.934C37.6652 20.0769 37.3928 20.1698 37.1103 20.2073C36.8277 20.2448 36.5406 20.2262 36.2652 20.1525C35.9899 20.0788 35.7318 19.9516 35.5057 19.778C35.2798 19.6045 35.0903 19.3882 34.948 19.1414L33.7816 17.1188C33.4945 16.6212 33.4165 16.0296 33.5652 15.4747C33.7139 14.9197 34.077 14.4465 34.5746 14.1591L35.2916 13.7455C35.1532 12.8383 35.1532 11.9154 35.2916 11.0083L34.5878 10.6023C34.3412 10.4605 34.1245 10.2712 33.951 10.0457C33.7774 9.82015 33.6499 9.56258 33.5758 9.28772C33.5018 9.01287 33.4826 8.72611 33.5195 8.44385C33.5563 8.16158 33.6484 7.88934 33.7904 7.64268L34.9571 5.61964C35.0994 5.37284 35.2891 5.15609 35.5151 4.98262C35.7411 4.80904 35.9992 4.68177 36.2746 4.60811C36.5499 4.53444 36.8371 4.51583 37.1196 4.55333C37.4021 4.59081 37.6743 4.68363 37.9209 4.82648L38.6292 5.23679C39.3464 4.66421 40.1456 4.20254 41 3.8673V3.04814C41 2.4735 41.2282 1.9224 41.6346 1.51607ZM51.7438 9.64852L53.0826 8.87646C53.1208 8.85435 53.1488 8.81791 53.1603 8.77526C53.1717 8.73257 53.1657 8.68708 53.1436 8.6488L51.9767 6.62538C51.9658 6.60638 51.9509 6.58931 51.9335 6.57596C51.9162 6.56261 51.8963 6.55282 51.8751 6.54716C51.8539 6.54149 51.8319 6.54006 51.8101 6.54294C51.7884 6.54583 51.7674 6.55297 51.7485 6.56397L50.4113 7.33872C50.0263 7.56181 49.5402 7.50364 49.2186 7.196C48.415 6.42702 47.4414 5.85827 46.3768 5.53588C45.9551 5.40816 45.6666 5.01945 45.6666 4.5788V3.04814C45.6666 3.00393 45.6491 2.96154 45.6178 2.93029C45.5866 2.89903 45.5442 2.88147 45.5 2.88147H43.1666C43.1224 2.88147 43.08 2.89903 43.0488 2.93029C43.0175 2.96154 43 3.00393 43 3.04814V4.5788C43 5.02033 42.7104 5.4096 42.2875 5.53657C41.22 5.85708 40.242 6.42218 39.4311 7.18695C39.1094 7.49041 38.6265 7.54647 38.2438 7.32479L36.9184 6.55712C36.8995 6.54613 36.8782 6.53883 36.8565 6.53594C36.8348 6.53306 36.8127 6.53449 36.7915 6.54015C36.7703 6.54582 36.7505 6.55561 36.7331 6.56896C36.7157 6.58232 36.7011 6.59897 36.6901 6.61797L35.5235 8.64093C35.5126 8.6599 35.5055 8.68084 35.5027 8.70256C35.4998 8.72427 35.5013 8.74633 35.507 8.76747C35.5127 8.78861 35.5225 8.80843 35.5359 8.82578C35.5492 8.84313 35.5659 8.85768 35.5848 8.8686L35.5859 8.86921L36.9089 9.63221C37.2924 9.8534 37.4849 10.3005 37.3819 10.7311C37.1231 11.813 37.1231 12.9406 37.3819 14.0225C37.4848 14.4531 37.2925 14.9001 36.909 15.1213L35.5747 15.8911C35.5364 15.9132 35.5085 15.9496 35.497 15.9923C35.4856 16.035 35.4916 16.0805 35.5137 16.1188L36.6806 18.1422C36.6915 18.1612 36.7063 18.1783 36.7237 18.1916C36.7411 18.205 36.761 18.2148 36.7822 18.2204C36.8033 18.2261 36.8254 18.2275 36.8472 18.2247C36.8689 18.2218 36.8898 18.2146 36.9088 18.2037L38.2411 17.4313C38.6259 17.2083 39.1117 17.2661 39.4333 17.5733C40.2408 18.3444 41.219 18.9141 42.2882 19.2359C42.7107 19.3631 43 19.7522 43 20.1935V21.7148C43 21.759 43.0175 21.8014 43.0488 21.8327C43.08 21.8639 43.1224 21.8815 43.1666 21.8815H45.5C45.5442 21.8815 45.5866 21.8639 45.6178 21.8327C45.6491 21.8014 45.6666 21.759 45.6666 21.7148V20.1865C45.6666 19.7448 45.9564 19.3555 46.3794 19.2286C47.4461 18.9087 48.4231 18.3432 49.2317 17.5774C49.5532 17.2729 50.0366 17.2161 50.4199 17.4378L51.7485 18.206C51.7674 18.217 51.7884 18.2241 51.8101 18.227C51.8319 18.2299 51.8539 18.2285 51.8751 18.2228C51.8963 18.2171 51.9162 18.2073 51.9335 18.194C51.9509 18.1806 51.9655 18.164 51.9765 18.145L53.1434 16.1216C53.1655 16.0833 53.1717 16.0374 53.1603 15.9947C53.1488 15.952 53.1209 15.9156 53.0826 15.8935L53.0799 15.8919L51.7639 15.1266C51.3846 14.906 51.1934 14.4639 51.2924 14.0364C51.5429 12.9553 51.5359 11.8305 51.272 10.7526L51.7438 9.64852Z" fill="black"/>
</g>
<defs>
<clipPath id="clip0">
<rect width="56" height="56" fill="white" transform="translate(0 0.714844)"/>
</clipPath>
</defs>
</svg>
