<svg width="56" height="56" viewBox="0 0 56 56" fill="none" xmlns="http://www.w3.org/2000/svg">
<path fill-rule="evenodd" clip-rule="evenodd" d="M9.5 19.8335C9.5 19.2812 9.94772 18.8335 10.5 18.8335H32.6667C33.219 18.8335 33.6667 19.2812 33.6667 19.8335C33.6667 20.3858 33.219 20.8335 32.6667 20.8335H10.5C9.94772 20.8335 9.5 20.3858 9.5 19.8335Z" fill="black"/>
<path fill-rule="evenodd" clip-rule="evenodd" d="M9.5 26.8335C9.5 26.2812 9.94772 25.8335 10.5 25.8335H24.5C25.0523 25.8335 25.5 26.2812 25.5 26.8335C25.5 27.3858 25.0523 27.8335 24.5 27.8335H10.5C9.94772 27.8335 9.5 27.3858 9.5 26.8335Z" fill="black"/>
<path fill-rule="evenodd" clip-rule="evenodd" d="M9.5 12.8335C9.5 12.2812 9.94772 11.8335 10.5 11.8335H26.8333C27.3856 11.8335 27.8333 12.2812 27.8333 12.8335C27.8333 13.3858 27.3856 13.8335 26.8333 13.8335H10.5C9.94772 13.8335 9.5 13.3858 9.5 12.8335Z" fill="black"/>
<path fill-rule="evenodd" clip-rule="evenodd" d="M9.5 33.8335C9.5 33.2812 9.94772 32.8335 10.5 32.8335H19.8333C20.3856 32.8335 20.8333 33.2812 20.8333 33.8335C20.8333 34.3858 20.3856 34.8335 19.8333 34.8335H10.5C9.94772 34.8335 9.5 34.3858 9.5 33.8335Z" fill="black"/>
<path fill-rule="evenodd" clip-rule="evenodd" d="M9.5 40.8335C9.5 40.2812 9.94772 39.8335 10.5 39.8335H19.8333C20.3856 39.8335 20.8333 40.2812 20.8333 40.8335C20.8333 41.3858 20.3856 41.8335 19.8333 41.8335H10.5C9.94772 41.8335 9.5 41.3858 9.5 40.8335Z" fill="black"/>
<path fill-rule="evenodd" clip-rule="evenodd" d="M3.49996 2.16675C3.14634 2.16675 2.8072 2.30722 2.55715 2.55727C2.3071 2.80732 2.16663 3.14646 2.16663 3.50008V52.5001C2.16663 52.8537 2.3071 53.1928 2.55715 53.4429C2.8072 53.6929 3.14634 53.8334 3.49996 53.8334H19.8333C20.3856 53.8334 20.8333 54.2811 20.8333 54.8334C20.8333 55.3857 20.3856 55.8334 19.8333 55.8334H3.49996C2.61591 55.8334 1.76806 55.4822 1.14294 54.8571C0.517815 54.232 0.166626 53.3841 0.166626 52.5001V3.50008C0.166626 2.61603 0.517816 1.76818 1.14294 1.14306C1.76806 0.517938 2.6159 0.166748 3.49996 0.166748H34.517C35.4009 0.166937 36.2488 0.51821 36.8737 1.14331M36.8737 1.14331L45.5233 9.79287C45.5233 9.7929 45.5233 9.79283 45.5233 9.79287C46.1484 10.4178 46.4998 11.2656 46.5 12.1495V19.8334C46.5 20.3857 46.0522 20.8334 45.5 20.8334C44.9477 20.8334 44.5 20.3857 44.5 19.8334V12.15C44.5 12.1499 44.5 12.15 44.5 12.15C44.4998 11.7964 44.3593 11.4572 44.1093 11.2073L35.4595 2.55752C35.2096 2.30751 34.8705 2.16688 34.517 2.16675C34.5169 2.16675 34.517 2.16675 34.517 2.16675H3.49996" fill="black"/>
<path fill-rule="evenodd" clip-rule="evenodd" d="M25.8333 43.1667C25.8333 42.6145 26.281 42.1667 26.8333 42.1667H35C35.5523 42.1667 36 42.6145 36 43.1667C36 43.719 35.5523 44.1667 35 44.1667H27.8333V51.3334C27.8333 51.8857 27.3856 52.3334 26.8333 52.3334C26.281 52.3334 25.8333 51.8857 25.8333 51.3334V43.1667Z" fill="black"/>
<path fill-rule="evenodd" clip-rule="evenodd" d="M28.1318 42.172C28.6812 42.1159 29.1721 42.5159 29.2281 43.0653C29.506 45.789 30.7068 48.3359 32.6312 50.2832C34.5557 52.2306 37.0881 53.4614 39.8083 53.7715C42.5285 54.0815 45.273 53.4522 47.5863 51.9879C49.8997 50.5236 51.6428 48.3123 52.5265 45.7211C52.7047 45.1983 53.273 44.9191 53.7957 45.0973C54.3185 45.2756 54.5977 45.8439 54.4194 46.3666C53.3885 49.3897 51.3549 51.9695 48.656 53.6778C45.9572 55.3861 42.7553 56.1203 39.5818 55.7586C36.4083 55.3969 33.4538 53.9609 31.2086 51.689C28.9635 49.4171 27.5626 46.4459 27.2385 43.2683C27.1824 42.7189 27.5824 42.228 28.1318 42.172Z" fill="black"/>
<path fill-rule="evenodd" clip-rule="evenodd" d="M54.8333 29.3335C55.3856 29.3335 55.8333 29.7812 55.8333 30.3335V38.5002C55.8333 39.0524 55.3856 39.5002 54.8333 39.5002H46.6666C46.1143 39.5002 45.6666 39.0524 45.6666 38.5002C45.6666 37.9479 46.1143 37.5002 46.6666 37.5002H53.8333V30.3335C53.8333 29.7812 54.281 29.3335 54.8333 29.3335Z" fill="black"/>
<path fill-rule="evenodd" clip-rule="evenodd" d="M41.8583 27.8954C39.1381 27.5853 36.3936 28.2146 34.0803 29.6789C31.7669 31.1432 30.0238 33.3545 29.1401 35.9458C28.9618 36.4685 28.3936 36.7478 27.8709 36.5695C27.3481 36.3912 27.0689 35.823 27.2472 35.3002C28.2781 32.2771 30.3117 29.6974 33.0106 27.989C35.7094 26.2807 38.9113 25.5465 42.0848 25.9082C45.2583 26.27 48.2128 27.7059 50.4579 29.9778C52.7031 32.2497 54.104 35.2209 54.4281 38.3985C54.4842 38.948 54.0842 39.4388 53.5348 39.4948C52.9853 39.5509 52.4945 39.1509 52.4385 38.6015C52.1606 35.8778 50.9598 33.331 49.0354 31.3836C47.1109 29.4363 44.5785 28.2054 41.8583 27.8954Z" fill="black"/>
</svg>
