<svg width="56" height="57" viewBox="0 0 56 57" fill="none" xmlns="http://www.w3.org/2000/svg">
<g clip-path="url(#clip0)">
<path fill-rule="evenodd" clip-rule="evenodd" d="M20.9531 2.3562C22.8742 1.39568 25.4094 0.883789 28 0.883789C30.5906 0.883789 33.1259 1.39568 35.0469 2.3562C36.9212 3.29333 38.3334 4.74218 38.3334 6.55046C38.3334 8.35873 36.9212 9.80759 35.0469 10.7447C33.1259 11.7052 30.5906 12.2171 28 12.2171C25.4094 12.2171 22.8742 11.7052 20.9531 10.7447C19.0789 9.80759 17.6667 8.35873 17.6667 6.55046C17.6667 4.74218 19.0789 3.29333 20.9531 2.3562ZM28 2.88379C25.6399 2.88379 23.4272 3.35523 21.8476 4.14505C20.2211 4.95826 19.6667 5.88337 19.6667 6.55046C19.6667 7.21754 20.2211 8.14265 21.8476 8.95586C23.4272 9.74568 25.6399 10.2171 28 10.2171C30.3602 10.2171 32.5728 9.74568 34.1525 8.95586C35.7789 8.14265 36.3334 7.21754 36.3334 6.55046C36.3334 5.88337 35.7789 4.95826 34.1525 4.14505C32.5728 3.35523 30.3602 2.88379 28 2.88379Z" fill="black"/>
<path fill-rule="evenodd" clip-rule="evenodd" d="M18.6667 12.5481C19.219 12.5481 19.6667 12.9958 19.6667 13.5481C19.6667 14.248 20.264 15.1564 21.8482 15.9498C23.3715 16.7126 25.5453 17.2148 28 17.2148C30.4548 17.2148 32.6286 16.7126 34.1518 15.9498C35.7361 15.1564 36.3334 14.248 36.3334 13.5481C36.3334 12.9958 36.7811 12.5481 37.3334 12.5481C37.8856 12.5481 38.3334 12.9958 38.3334 13.5481C38.3334 15.4149 36.8411 16.8398 35.0473 17.7381C33.1925 18.6669 30.6996 19.2148 28 19.2148C25.3004 19.2148 22.8076 18.6669 20.9527 17.7381C19.1589 16.8398 17.6667 15.4149 17.6667 13.5481C17.6667 12.9958 18.1144 12.5481 18.6667 12.5481Z" fill="black"/>
<path fill-rule="evenodd" clip-rule="evenodd" d="M18.6667 5.5481C19.219 5.5481 19.6667 5.99581 19.6667 6.5481V20.5481C19.6667 21.248 20.264 22.1564 21.8482 22.9498C23.3715 23.7126 25.5453 24.2148 28 24.2148C30.4548 24.2148 32.6286 23.7126 34.1518 22.9498C35.7361 22.1564 36.3334 21.248 36.3334 20.5481V6.5481C36.3334 5.99581 36.7811 5.5481 37.3334 5.5481C37.8856 5.5481 38.3334 5.99581 38.3334 6.5481V20.5481C38.3334 22.4149 36.8411 23.8398 35.0473 24.7381C33.1925 25.667 30.6996 26.2148 28 26.2148C25.3004 26.2148 22.8076 25.667 20.9527 24.7381C19.1589 23.8398 17.6667 22.4149 17.6667 20.5481V6.5481C17.6667 5.99581 18.1144 5.5481 18.6667 5.5481Z" fill="black"/>
<path fill-rule="evenodd" clip-rule="evenodd" d="M7.16663 55.5505C7.16663 54.9983 7.61434 54.5505 8.16663 54.5505H19.8333C20.3856 54.5505 20.8333 54.9983 20.8333 55.5505C20.8333 56.1028 20.3856 56.5505 19.8333 56.5505H8.16663C7.61434 56.5505 7.16663 56.1028 7.16663 55.5505Z" fill="black"/>
<path fill-rule="evenodd" clip-rule="evenodd" d="M14 49.8838C14.5523 49.8838 15 50.3315 15 50.8838V55.5504C15 56.1027 14.5523 56.5504 14 56.5504C13.4477 56.5504 13 56.1027 13 55.5504V50.8838C13 50.3315 13.4477 49.8838 14 49.8838Z" fill="black"/>
<path fill-rule="evenodd" clip-rule="evenodd" d="M1.33337 46.217C1.33337 45.6648 1.78109 45.217 2.33337 45.217H25.6667C26.219 45.217 26.6667 45.6648 26.6667 46.217C26.6667 46.7693 26.219 47.217 25.6667 47.217H2.33337C1.78109 47.217 1.33337 46.7693 1.33337 46.217Z" fill="black"/>
<path fill-rule="evenodd" clip-rule="evenodd" d="M5.83334 35.5481C5.1703 35.5481 4.53442 35.8115 4.06558 36.2803C3.59674 36.7492 3.33334 37.3851 3.33334 38.0481V47.1784C3.33334 47.1874 3.33322 47.1964 3.33298 47.2054C3.31437 47.8955 3.57025 48.5649 4.0445 49.0666C4.51565 49.5651 5.16412 49.8577 5.84926 49.8814H22.1511C22.8367 49.8583 23.4856 49.5656 23.9569 49.0667C24.4311 48.5646 24.6866 47.8947 24.6671 47.2043C24.6668 47.1949 24.6667 47.1855 24.6667 47.1761V38.0481C24.6667 37.3851 24.4033 36.7492 23.9344 36.2803C23.4656 35.8115 22.8297 35.5481 22.1667 35.5481H5.83334ZM2.65136 34.8661C3.49528 34.0222 4.63987 33.5481 5.83334 33.5481H22.1667C23.3602 33.5481 24.5047 34.0222 25.3487 34.8661C26.1926 35.71 26.6667 36.8546 26.6667 38.0481V47.1628C26.6971 48.378 26.2457 49.5561 25.4108 50.4401C24.5724 51.3276 23.4158 51.8459 22.1954 51.881C22.19 51.8812 22.1845 51.8813 22.1791 51.8813C22.1749 51.8814 22.1708 51.8814 22.1667 51.8814H5.83334C5.82355 51.8814 5.81375 51.8813 5.80395 51.881C4.58449 51.8451 3.42902 51.3271 2.591 50.4405C1.75626 49.5573 1.30437 48.3803 1.33334 47.1658V38.0481C1.33334 36.8546 1.80745 35.71 2.65136 34.8661Z" fill="black"/>
<path fill-rule="evenodd" clip-rule="evenodd" d="M35.1666 55.5505C35.1666 54.9983 35.6143 54.5505 36.1666 54.5505H47.8333C48.3856 54.5505 48.8333 54.9983 48.8333 55.5505C48.8333 56.1028 48.3856 56.5505 47.8333 56.5505H36.1666C35.6143 56.5505 35.1666 56.1028 35.1666 55.5505Z" fill="black"/>
<path fill-rule="evenodd" clip-rule="evenodd" d="M42 49.8838C42.5523 49.8838 43 50.3315 43 50.8838V55.5504C43 56.1027 42.5523 56.5504 42 56.5504C41.4477 56.5504 41 56.1027 41 55.5504V50.8838C41 50.3315 41.4477 49.8838 42 49.8838Z" fill="black"/>
<path fill-rule="evenodd" clip-rule="evenodd" d="M29.3334 46.217C29.3334 45.6648 29.7811 45.217 30.3334 45.217H53.6667C54.219 45.217 54.6667 45.6648 54.6667 46.217C54.6667 46.7693 54.219 47.217 53.6667 47.217H30.3334C29.7811 47.217 29.3334 46.7693 29.3334 46.217Z" fill="black"/>
<path fill-rule="evenodd" clip-rule="evenodd" d="M33.8333 35.5481C33.1703 35.5481 32.5344 35.8115 32.0656 36.2803C31.5967 36.7492 31.3333 37.3851 31.3333 38.0481V47.1784C31.3333 47.1874 31.3332 47.1964 31.333 47.2054C31.3144 47.8955 31.5703 48.5649 32.0445 49.0666C32.5157 49.5651 33.1641 49.8577 33.8493 49.8814H50.1511C50.8366 49.8583 51.4856 49.5656 51.9568 49.0667C52.4311 48.5646 52.6866 47.8947 52.6671 47.2043C52.6668 47.1949 52.6667 47.1855 52.6667 47.1761V38.0481C52.6667 37.3851 52.4033 36.7492 51.9344 36.2803C51.4656 35.8115 50.8297 35.5481 50.1667 35.5481H33.8333ZM30.6514 34.8661C31.4953 34.0222 32.6399 33.5481 33.8333 33.5481H50.1667C51.3601 33.5481 52.5047 34.0222 53.3486 34.8661C54.1926 35.71 54.6667 36.8546 54.6667 38.0481V47.1628C54.6971 48.378 54.2457 49.5561 53.4108 50.4401C52.5724 51.3276 51.4158 51.8459 50.1954 51.881C50.1858 51.8813 50.1762 51.8814 50.1667 51.8814H33.8333C33.8235 51.8814 33.8137 51.8813 33.804 51.881C32.5845 51.8451 31.429 51.3271 30.591 50.4405C29.7563 49.5573 29.3044 48.3803 29.3333 47.1658V38.0481C29.3333 36.8546 29.8074 35.71 30.6514 34.8661Z" fill="black"/>
<path fill-rule="evenodd" clip-rule="evenodd" d="M41 15.8838C41 15.3315 41.4477 14.8838 42 14.8838H49C49.5523 14.8838 50 15.3315 50 15.8838V27.5505C50 28.1027 49.5523 28.5505 49 28.5505C48.4477 28.5505 48 28.1027 48 27.5505V16.8838H42C41.4477 16.8838 41 16.4361 41 15.8838Z" fill="black"/>
<path fill-rule="evenodd" clip-rule="evenodd" d="M6 15.8838C6 15.3315 6.44772 14.8838 7 14.8838H14C14.5523 14.8838 15 15.3315 15 15.8838C15 16.4361 14.5523 16.8838 14 16.8838H8V27.5505C8 28.1027 7.55228 28.5505 7 28.5505C6.44772 28.5505 6 28.1027 6 27.5505V15.8838Z" fill="black"/>
</g>
<defs>
<clipPath id="clip0">
<rect width="56" height="56" fill="white" transform="translate(0 0.714844)"/>
</clipPath>
</defs>
</svg>
