<svg width="64" height="65" viewBox="0 0 64 65" fill="none" xmlns="http://www.w3.org/2000/svg">
<path fill-rule="evenodd" clip-rule="evenodd" d="M7 32.7148C7 18.9126 18.1977 7.71484 32 7.71484C45.8023 7.71484 57 18.9126 57 32.7148C57 46.5171 45.8023 57.7148 32 57.7148C18.1977 57.7148 7 46.5171 7 32.7148ZM32 9.71484C19.3023 9.71484 9 20.0171 9 32.7148C9 45.4126 19.3023 55.7148 32 55.7148C44.6977 55.7148 55 45.4126 55 32.7148C55 20.0171 44.6977 9.71484 32 9.71484Z" fill="black"/>
<path d="M32.6631 19.8543C32.4478 19.7642 32.2164 19.7188 31.9831 19.721C31.7524 19.7232 31.5243 19.7719 31.3129 19.8641C31.1014 19.9563 30.9106 20.0901 30.752 20.2577C30.5934 20.4253 30.4701 20.6231 30.3896 20.8393C30.3091 21.0556 30.273 21.2858 30.2835 21.5163L31.0011 36.7618C31.0262 37.2952 31.466 37.7148 32 37.7147C32.534 37.7147 32.9738 37.2951 32.9989 36.7617L33.7152 21.5163C33.7258 21.283 33.6887 21.0501 33.6062 20.8316C33.5237 20.6132 33.3975 20.4138 33.2354 20.2458C33.0732 20.0778 32.8785 19.9446 32.6631 19.8543Z" fill="black"/>
<path d="M32 46.7034C31.5056 46.7034 31.0222 46.5567 30.6111 46.282C30.2 46.0073 29.8795 45.6169 29.6903 45.1601C29.5011 44.7033 29.4516 44.2006 29.548 43.7156C29.6445 43.2307 29.8826 42.7852 30.2322 42.4356C30.5819 42.086 31.0273 41.8479 31.5123 41.7514C31.9972 41.6549 32.4999 41.7045 32.9567 41.8937C33.4135 42.0829 33.804 42.4033 34.0787 42.8144C34.3534 43.2256 34.5 43.7089 34.5 44.2034C34.5 44.8664 34.2366 45.5023 33.7678 45.9711C33.2989 46.44 32.663 46.7034 32 46.7034Z" fill="black"/>
</svg>
