<svg width="32" height="32" viewBox="0 0 32 32" fill="none" xmlns="http://www.w3.org/2000/svg">
<path d="M13.9818 17.4416L12.988 16.3374L8.23973 20.4967L6.03124 17.957L4.927 18.914L8.1293 22.558L13.9818 17.4416Z" fill="black"/>
<path d="M29.5884 8.05591L15.9326 2.24023L2.23999 8.05591V24.0306L15.9326 29.8463L29.6252 24.0306L29.5884 8.05591ZM15.9326 3.82298L27.0118 8.49761L22.4844 10.4116L11.3684 5.77381L15.9326 3.82298ZM15.1596 13.5403V27.8955L3.71231 23.0368V9.63866L13.9818 13.982V12.3993L4.85336 8.53442L9.49118 6.54678L20.5704 11.2214L15.1596 13.5403ZM28.1161 23.0368L16.6319 27.8955V14.4973L21.6378 12.3625V14.755L23.1102 14.1292V11.7367L28.1161 9.60185V23.0368Z" fill="black"/>
</svg>
