<svg width="25" height="25" viewBox="0 0 25 25" fill="none" xmlns="http://www.w3.org/2000/svg">
<path d="M5.75 4.71484H19.25C20.983 4.71484 22.3992 6.0713 22.4949 7.78042L22.5 7.96484V17.4648C22.5 19.1979 21.1435 20.6141 19.4344 20.7097L19.25 20.7148H5.75C4.01697 20.7148 2.60075 19.3584 2.50514 17.6493L2.5 17.4648V7.96484C2.5 6.23181 3.85645 4.8156 5.56558 4.71999L5.75 4.71484H19.25H5.75ZM21 10.0878L12.8493 14.3785C12.6619 14.4772 12.4431 14.4913 12.2468 14.4208L12.1507 14.3785L4 10.0888V17.4648C4 18.383 4.70711 19.136 5.60647 19.209L5.75 19.2148H19.25C20.1682 19.2148 20.9212 18.5077 20.9942 17.6084L21 17.4648V10.0878ZM19.25 6.21484H5.75C4.83183 6.21484 4.07881 6.92195 4.0058 7.82132L4 7.96484V8.39384L12.5 12.8673L21 8.39284V7.96484C21 7.04667 20.2929 6.29365 19.3935 6.22064L19.25 6.21484Z" fill="#212121"/>
</svg>
